# xmcd
#
# Track frame offsets:
#	150
#	10714
#	23219
#	34274
#	46525
#	60644
#	72346
#	85011
#	98554
#	110199
#	122114
#	135180
#	147116
#	158871
#	170442
#	186788
#	201711
#	215205
#	230600
#	243800
#	256469
#	268363
#	280695
#	293538
#	306238
#	319199
#	329720
#	343034
#
# Disc length: 4734 seconds
#
# Revision: 1
# Processed by: cddbd v1.5PL3 Copyright (c) Steve Scherf et al.
# Submitted via: CDmax 2.0
#
DISCID=a4127c1c
DTITLE=Snooky Pryor and Friends - Gonna Pitch a Boogie Woogie
DYEAR=2001
DGENRE=Blues
TTITLE0=Snooky and Moody's Boogie
TTITLE1=Telephone Blues Boogy Fool
TTITLE2=Boogy Fool
TTITLE3=Raisin' Sand
TTITLE4=Fine Boogie
TTITLE5=I'm Getting Tired
TTITLE6=Going Back on the Road
TTITLE7=Hold Me in Your Arms
TTITLE8=(Real) Fine Boogie
TTITLE9=Harp Instrumental
TTITLE10=Cryin' Shame
TTITLE11=Eighty Nine Ten
TTITLE12=Stop the Train Conductor [Take 1]
TTITLE13=Walking Boogie
TTITLE14=Stop the Train Conductor
TTITLE15=Uncle Sam Don't Take My Man
TTITLE16=Big Guns (Uncle Same Don't Take My Man) [Undubbed Version]
TTITLE17=I Can't Feel Good No More
TTITLE18=I Can't Feel Good No More [alternate take]
TTITLE19=Boogie Twist
TTITLE20=Can't We Get This Straight
TTITLE21=Rough Treatment
TTITLE22=Why Should I Worry
TTITLE23=Rough Treatment [alternate take]
TTITLE24=Stockyard Blues
TTITLE25=Keep What You Got
TTITLE26=My Baby Walked Out
TTITLE27=Let Me Ride Your Mule
EXTD=
EXTT0=
EXTT1=
EXTT2=
EXTT3=
EXTT4=
EXTT5=
EXTT6=
EXTT7=
EXTT8=
EXTT9=
EXTT10=
EXTT11=
EXTT12=
EXTT13=
EXTT14=
EXTT15=
EXTT16=
EXTT17=
EXTT18=
EXTT19=
EXTT20=
EXTT21=
EXTT22=
EXTT23=
EXTT24=
EXTT25=
EXTT26=
EXTT27=
PLAYORDER=
